<svg xmlns="http://www.w3.org/2000/svg" xmlns:xlink="http://www.w3.org/1999/xlink" width="1090px" height="460px" viewBox="0 0 1090 460" preserveAspectRatio="xMidYMid meet" ><defs id="svgEditorDefs"><pattern height="10" id="hatch-black-dash-45" patternTransform="rotate(45) scale(0.4)" patternUnits="userSpaceOnUse" viewBox="0 0 24 10" width="24" x="0" y="0"><line style="stroke:black;stroke-width:1px;stroke-dasharray:4,4;" x1="0" x2="24" y1="5" y2="5"/></pattern><pattern height="10" id="hatch-black-dash-120" patternTransform="rotate(120) scale(0.4)" patternUnits="userSpaceOnUse" viewBox="0 0 24 10" width="24" x="0" y="0"><line style="stroke:black;stroke-width:1px;stroke-dasharray:4,4;" x1="0" x2="24" y1="5" y2="5"/></pattern><pattern height="10" id="hatch-black-120" patternTransform="rotate(120) scale(0.4)" patternUnits="userSpaceOnUse" viewBox="0 0 10 10" width="10" x="0" y="0"><line style="stroke:black;stroke-width:1px;" x1="0" x2="10" y1="5" y2="5"/></pattern><pattern height="20%" id="house-sienna-obox" patternUnits="objectBoundingBox" viewBox="-20 -20 168 168" width="20%" x="0%" y="0%"><path d="M9.778 128h108.445c5.4 0 9.778-4.378 9.778-9.778v-84.445c0-5.4-4.378-9.778-9.778-9.778h-46.222v-14.222c0-5.4-4.378-9.778-9.778-9.778h-52.444c-5.4 0-9.778 4.378-9.778 9.778v108.445c0 5.4 4.378 9.778 9.778 9.778zM104 40h8v16h-8v-16zM104 64h8v16h-8v-16zM88 40h8v16h-8v-16zM88 64h8v16h-8v-16zM72 40h8v16h-8v-16zM72 64h8v16h-8v-16zM48 16h8v16h-8v-16zM48 40h8v16h-8v-16zM48 64h8v16h-8v-16zM32 16h8v16h-8v-16zM32 40h8v16h-8v-16zM32 64h8v16h-8v-16zM16 16h8v16h-8v-16zM16 40h8v16h-8v-16zM16 64h8v16h-8v-16z" style="fill:sienna;stroke:none"/></pattern><pattern height="20" id="square-p" patternContentUnits="userSpaceOnUse" patternUnits="userSpaceOnUse" preserveAspectRatio="xMinYMin meet" viewBox="0 0 20 20" width="20" x="0" y="0"><rect fill="#fff" height="20" width="20"/><rect fill="#ccc" height="10" width="10"/><rect fill="#ccc" height="10" width="10" x="10" y="10"/></pattern><polygon id="svgEditorShapeDefs" fill="khaki" stroke="black" style="vector-effect: non-scaling-stroke; stroke-width: 1px;"/></defs><rect id="svgEditorBackground" x="-33" y="-6" width="1090" height="460" style="stroke: none; fill: none;"/><text fill="black" x="249" y="28" id="e1_texte" style="font-family: Arial; font-size: 20px; text-decoration: underline;" dx="" dy="">Mid Point First Order Line Drawing Algorithm</text><text fill="black" x="278.746" y="136.099" id="e4_texte" style="font-family: Arial; font-size: 20px;" transform="matrix(0.735571 -0.00225196 0.00225196 0.735571 -189.363 -36.5355)">For a Line :<tspan x="316.377" dy="1.25em" y="">if dx &gt; dy : </tspan><tspan x="335.551" dy="1.25em" y="">plot x</tspan><tspan x="278.746" dy="1.25em" y=""/></text><text fill="black" x="95.8775" y="135.283" id="e5_texte" style="font-family: Arial; font-size: 20px;" transform="matrix(0.813219 -0.00248968 0.00248968 0.813219 -23.3871 6.53492)">compute y</text><text fill="black" x="67" y="106" id="e6_texte" style="font-family: Arial; font-size: 20px;"/><text fill="black" x="81.6359" y="178.758" id="e7_texte" style="font-family: Arial; font-size: 20px;" transform="matrix(0.813219 -0.00248968 0.00248968 0.813219 -23.3871 6.53492)">if dx &lt; dy :<tspan x="104.4" dy="1.25em" y="">plot y</tspan><tspan x="102.568" dy="1.25em" y="">compute x</tspan></text><text fill="black" x="54.5442" y="261.506" id="e8_texte" style="font-family: Arial; font-size: 20px;" transform="matrix(0.805661 0 0 0.805661 -25.5852 13.1114)">In First Quadtrant,<tspan x="-125.456" dy="1.25em" y=""/></text><text fill="black" x="63.435" y="405.799" id="e9_texte" style="font-family: Arial; font-size: 20px;" transform="matrix(0.588185 0 0 0.588185 23.9722 27.0702)">Scanning Left to Right :</text><text fill="black" x="223.645" y="337.739" id="e10_texte" style="font-family: Arial; font-size: 20px;" transform="matrix(0.9181 0 0 0.9181 -117.469 -27.4463)">x </text><text fill="black" x="-64.8776" y="643.976" id="e11_texte" style="font-family: Arial; font-size: 20px;" transform="matrix(0.344373 0 0 0.344373 119.493 62.121)">n+1</text><text fill="black" x="301.13" y="344.931" id="e12_texte" style="font-family: Arial; font-size: 20px;" transform="matrix(0.93989 0 0 0.93989 -154.062 -41.9128)">x</text><text fill="black" x="108.241" y="537.558" id="e13_texte" style="font-family: Arial; font-size: 20px;" transform="matrix(0.403876 0 0 0.403876 94.1697 66.4367)">n</text><text fill="black" x="170.87" y="441.09" id="e14_texte" style="font-family: Arial; font-size: 20px;" transform="matrix(0.576965 0 0 0.576965 15.9334 26.4531)">=</text><text fill="black" x="533" y="176" id="e15_texte" style="font-family: Arial; font-size: 20px;"/><text fill="black" x="297.251" y="375.01" id="e16_texte" style="font-family: Arial; font-size: 20px;" transform="matrix(0.770605 0 0 0.770605 -78.252 -5.30391)">+ 1</text><text fill="black" x="223.645" y="390.526" id="e2_texte" style="font-family: Arial; font-size: 20px;" transform="matrix(0.918101 0 0 0.918101 -117.468 -27.4463)">y</text><text fill="black" x="-64.8778" y="784.71" id="e3_texte" style="font-family: Arial; font-size: 20px;" transform="matrix(0.344373 0 0 0.344373 119.493 62.1209)">n+1</text><text fill="black" x="301.131" y="396.496" id="e17_texte" style="font-family: Arial; font-size: 20px;" transform="matrix(0.939888 0 0 0.939888 -154.062 -41.9127)">y</text><text fill="black" x="108.242" y="657.557" id="e18_texte" style="font-family: Arial; font-size: 20px;" transform="matrix(0.403876 0 0 0.403876 94.1697 66.4367)">n</text><text fill="black" x="170.87" y="525.089" id="e19_texte" style="font-family: Arial; font-size: 20px;" transform="matrix(0.576965 0 0 0.576965 15.9334 26.4531)">=</text><text fill="black" x="312.29" y="455.086" id="e20_texte" style="font-family: Arial; font-size: 20px;" transform="matrix(0.806384 0 0 0.806384 -102.801 -33.6821)">+ 1</text><text fill="black" x="395" y="162" id="e21_texte" style="font-family: Arial; font-size: 20px;"/><text fill="black" x="84.8693" y="481.089" id="e22_texte" style="font-family: Arial; font-size: 20px;" transform="matrix(0.576965 0 0 0.576965 15.9334 26.4531)">Scanning Top to Bottom :</text><text fill="black" x="525" y="125" id="e23_texte" style="font-family: Arial; font-size: 20px;"/><line id="e24_line" x1="596.4580078124409" y1="110.91898345951185" x2="882.4580078124409" y2="110.91898345951185" stroke="black" style="stroke-width: 1px; fill: none;" transform="matrix(0.56704 0 0 0.56704 504.99 20.1188)"/><path d="M-56.782080097359255,3.5135343643711145v-2l4,4l-4,4v-2h-4v-4Z" stroke="black" id="e25_shape" style="vector-effect: non-scaling-stroke; stroke-width: 1px;" transform="matrix(1.84288 0 0 1.84288 1016.46 58.6775)" fill="khaki"/><path d="M-16.811136246620777,11.178396458135133h2l-4,4l-4,-4h2v-4h4Z" stroke="black" id="e26_shape" style="vector-effect: non-scaling-stroke; stroke-width: 1px;" transform="matrix(2.1264 0 0 2.1264 856.555 117.65)" fill="khaki"/><line id="e27_line" x1="596.4580078124409" y1="110.91898345951185" x2="596.4580078124409" y2="322.91897583011735" stroke="black" style="stroke-width: 1px; fill: none;" transform="matrix(0.56704 0 0 0.56704 504.99 20.1188)"/><text fill="black" x="520.458" y="102.919" id="e28_texte" style="font-family: Arial; font-size: 20px;" transform="matrix(0.56704 0 0 0.56704 504.99 20.1188)">Top Left</text><text fill="black" x="820.458" y="88.919" id="e29_texte" style="font-family: Arial; font-size: 20px;" transform="matrix(0.56704 0 0 0.56704 504.99 20.1188)">Right</text><text fill="black" x="522.458" y="316.919" id="e30_texte" style="font-family: Arial; font-size: 20px;" transform="matrix(0.56704 0 0 0.56704 504.99 20.1188)">Bottom</text><text fill="black" x="530.458" y="122.919" id="e31_texte" style="font-family: Arial; font-size: 20px;" transform="matrix(0.56704 0 0 0.56704 504.99 20.1188)">x = 0 <tspan x="530.458" dy="1.25em" y="">y = 0</tspan></text><text fill="black" x="534.458" y="344.919" id="e24_texte" style="font-family: Arial; font-size: 20px;" transform="matrix(0.56704 0 0 0.56704 504.99 20.1188)">x = 0 <tspan x="534.458" dy="1.25em" y="" id="e24_tspan">y = n</tspan></text><text fill="black" x="876.458" y="74.919" id="e25_texte" style="font-family: Arial; font-size: 20px;" transform="matrix(0.56704 0 0 0.56704 504.99 20.1188)">x = n <tspan x="876.458" dy="1.25em" y="" id="e25_tspan">y = 0</tspan></text><text fill="black" x="496.458" y="258.919" id="e32_texte" style="font-family: Arial; font-size: 20px;" transform="matrix(0.56704 0 0 0.56704 504.99 20.1188)">y increase</text><text fill="black" x="666.458" y="66.919" id="e26_texte" style="font-family: Arial; font-size: 20px;" transform="matrix(0.56704 0 0 0.56704 504.99 20.1188)">x increase</text><text fill="black" x="295.674" y="38.5465" id="e27_texte" style="font-family: Arial; font-size: 20px;" transform="matrix(0.79622 0 0 0.79622 117.044 75.9232)"/><text fill="black" x="0.580486" y="284.645" id="e34_texte" style="font-family: Arial; font-size: 20px;" transform="matrix(0.723126 0 0 0.723126 35.9832 41.2972)">For positive(+ve) slope :</text><text fill="black" x="151.212" y="295.714" id="e35_texte" style="font-family: Arial; font-size: 20px;"/><text fill="black" x="217.07" y="69.0763" id="e36_texte" style="font-family: Arial; font-size: 20px;">Equation of line as F(x,y) :</text><text fill="black" x="218.282" y="99.1775" id="e37_texte" style="font-family: Arial; font-size: 20px;">F(x,y) = ax+by+c</text><text fill="black" x="430" y="231.992" id="e39_texte" style="font-family: Arial; font-size: 20px;"/><text fill="black" x="414.733" y="243.939" id="e38_texte" style="font-family: Arial; font-size: 20px;"/><text fill="black" x="136.339" y="292.487" id="e41_texte" style="font-family: Arial; font-size: 20px;" transform="matrix(0.595676 0 0 0.595676 135.126 94.8979)"></text><text fill="black" x="635.763" y="534.414" id="e33_texte" style="font-family: Arial; font-size: 20px;" transform="matrix(0.627009 -0.0019196 0.0019196 0.627009 -149.876 -23.5235)">For a Line :<tspan x="673.394" dy="1.25em" y="" id="e33_tspan">if dx &gt; dy : </tspan><tspan x="702.096" dy="1.25em" y="" id="e34_tspan">plot x</tspan><tspan x="635.763" dy="1.25em" y="" id="e35_tspan"/></text><text fill="black" x="430.288" y="498.474" id="e42_texte" style="font-family: Arial; font-size: 20px;" transform="matrix(0.693197 -0.00212223 0.00212223 0.693197 -8.39665 13.1902)">compute y</text><text fill="black" x="914.752" y="261.532" id="e43_texte" style="font-family: Arial; font-size: 20px;" transform="matrix(0.79622 0 0 0.79622 117.045 75.9231)"/><text fill="black" x="162.005" y="411.816" id="e44_texte" style="font-family: Arial; font-size: 20px;" transform="matrix(0.774771 0 0 0.774771 87.5093 61.218)">if we select the point F(X,Y)</text><text fill="black" x="143.618" y="443.533" id="e45_texte" style="font-family: Arial; font-size: 20px;" transform="matrix(0.710315 0 0 0.710315 109.948 83.0921)">So, First Mid Point = F(X+1,Y+(1/2))</text><text fill="black" x="512.582" y="14.9865" id="e46_texte" style="font-family: Arial; font-size: 20px;" transform="matrix(0.541622 0 0 0.564417 212.176 54.8332)">then, there could be two possible values<tspan x="512.583" dy="1.25em" y="">of Next mid points which will decide the </tspan><tspan x="512.582" dy="1.25em" y="">Next Point and act like a </tspan><tspan x="512.582" dy="1.25em" y="">decision parameter for the Next to the Next Point:</tspan></text><rect x="517.1352539062626" y="64.5237197875439" stroke="black" id="e47_rectangle" style="stroke-width: 1px;" width="292.727" height="83.6364" fill="paleturquoise" transform="matrix(0.880309 0 0 0.826923 25.107 59.7977)" ry="0" rx="0"/><line id="e48_line" x1="517.1352539062626" y1="130.34619140620555" x2="809.8614501953251" y2="132.3375396728071" stroke="black" style="stroke-width: 1px; fill: none;" transform="matrix(0.880309 0 0 1 25.107 0)"/><line id="e2_line" x1="517.1352539062626" y1="154.2421264647993" x2="809.8615112304814" y2="156.23347473140086" stroke="black" style="stroke-width: 1px; fill: none;" transform="matrix(0.880309 0 0 1 25.107 0)"/><line id="e49_line" x1="556.4289550781376" y1="112.88599395747508" x2="556.4289550781376" y2="182.5827026366743" stroke="black" style="stroke-width: 1px; fill: none;" transform="matrix(0.880309 0 0 1 25.107 0)"/><line id="e3_line" x1="731.4141235351689" y1="112.8860244750532" x2="731.4141235351689" y2="182.58273315425242" stroke="black" style="stroke-width: 1px; fill: none;" transform="matrix(0.880309 0 0 1 25.107 0)"/><text fill="black" x="882.393" y="-29.047" id="e50_texte" style="font-family: Arial; font-size: 20px;" transform="matrix(0.440155 0 0 0.5 102.036 138.398)">S No</text><text fill="black" x="950.964" y="-27.056" id="e47_texte" style="font-family: Arial; font-size: 20px;" transform="matrix(0.440155 0 0 0.5 102.036 138.398)">Next Mid Point (Decision parameter)</text><text fill="black" x="1304.56" y="-29.047" id="e48_texte" style="font-family: Arial; font-size: 20px;" transform="matrix(0.440155 0 0 0.5 102.036 138.398)">Next Point</text><text fill="black" x="896.333" y="12.771" id="e49_texte" style="font-family: Arial; font-size: 20px;" transform="matrix(0.440155 0 0 0.5 102.036 138.398)">1</text><text fill="black" x="894.342" y="58.5709" id="e51_texte" style="font-family: Arial; font-size: 20px;" transform="matrix(0.440155 0 0 0.5 102.036 138.398)">2</text><text fill="black" x="1005.86" y="18.745" id="e53_texte" style="font-family: Arial; font-size: 20px;" transform="matrix(0.440155 0 0 0.5 102.036 138.398)">F(X+2,Y+(1/2))</text><text fill="black" x="1312.52" y="62.5539" id="e54_texte" style="font-family: Arial; font-size: 20px;" transform="matrix(0.440155 0 0 0.5 102.036 138.398)">X+1 , Y+1</text><text fill="black" x="1310.53" y="16.754" id="e55_texte" style="font-family: Arial; font-size: 20px;" transform="matrix(0.440155 0 0 0.5 102.036 138.398)">X+1 , Y</text><text fill="black" x="1007.85" y="60.5629" id="e52_texte" style="font-family: Arial; font-size: 20px;" transform="matrix(0.440155 0 0 0.5 102.036 138.398)">F(X+2,Y+(3/2))</text><line id="e57_line" x1="200.741" y1="48.5189" x2="198.519" y2="452.963" stroke="black" style="stroke-width: 1px; fill: none;"/><line id="e1_line" x1="465.186" y1="52.9632" x2="465.186" y2="459.628" stroke="black" style="stroke-width: 1px; fill: none;"/><line id="e4_line" x1="760.7412109375" y1="84.07402038569774" x2="760.7412109375" y2="490.73645019526805" stroke="black" style="stroke-width: 1px; fill: none;"/><text fill="black" x="538.518" y="132.963" id="e58_texte" style="font-family: Arial; font-size: 20px;"/><rect x="540.7291870117423" y="162.48960876459216" stroke="black" id="e1_rectangle" style="stroke-width: 1px;" width="292.727" height="83.6364" fill="paleturquoise" transform="matrix(0.940882 0 0 0.790191 -28.2146 61.5028)" ry="0" rx="0"/><line id="e5_line" x1="540.729370117211" y1="215.80030822749254" x2="833.4559936523673" y2="217.79156494135972" stroke="black" style="stroke-width: 1px; fill: none;" transform="matrix(0.940882 0 0 0.95558 -28.2146 4.36132)"/><line id="e6_line" x1="540.729370117211" y1="237.47377014155504" x2="833.4560546875235" y2="239.4651641845238" stroke="black" style="stroke-width: 1px; fill: none;" transform="matrix(0.940882 0 0 0.95558 -28.2146 4.36132)"/><line id="e7_line" x1="596.5410156250235" y1="193.8959808349144" x2="596.5410156250235" y2="263.592163085891" stroke="black" style="stroke-width: 1px; fill: none;" transform="matrix(0.940882 0 0 0.95558 -28.2146 4.36132)"/><line id="e8_line" x1="757.5328979492423" y1="193.89601135249254" x2="757.5328979492423" y2="263.5921936034691" stroke="black" style="stroke-width: 1px; fill: none;" transform="matrix(0.940882 0 0 0.95558 -28.2146 4.36132)"/><text fill="black" x="1053.69" y="139.408" id="e59_texte" style="font-family: Arial; font-size: 20px;" transform="matrix(0.470443 0 0 0.47779 54.0077 136.612)">Next Decision Parameter</text><text fill="black" x="1351.75" y="141.861" id="e60_texte" style="font-family: Arial; font-size: 20px;" transform="matrix(0.470443 0 0 0.47779 54.0077 136.612)">simplified</text><text fill="black" x="1361.34" y="4.57454" id="e65_texte" style="font-family: Arial; font-size: 20px;" transform="matrix(0.440155 0 0 0.5 102.036 138.398)"/><text fill="black" x="1165.13" y="182.987" id="e63_texte" style="font-family: Arial; font-size: 20px;" transform="matrix(0.470443 0 0 0.47779 54.0077 136.612)">- F(X+1,Y+(1/2))</text><text fill="black" x="1025.76" y="184.805" id="e66_texte" style="font-family: Arial; font-size: 20px;" transform="matrix(0.470443 0 0 0.47779 54.0077 136.612)">F(X+2,Y+(3/2))</text><text fill="black" x="1166.15" y="229.654" id="e67_texte" style="font-family: Arial; font-size: 20px;" transform="matrix(0.470443 0 0 0.47779 54.0077 136.612)">- F(X+1,Y+(1/2))</text><text fill="black" x="1023.77" y="231.876" id="e68_texte" style="font-family: Arial; font-size: 20px;" transform="matrix(0.470443 0 0 0.47779 54.0077 136.612)">F(X+2,Y+(1/2))</text><text fill="black" x="1458.76" y="180.996" id="e64_texte" style="font-family: Arial; font-size: 20px;" transform="matrix(0.372553 0 0 0.47779 157.665 138.735)">+ (a+b)</text><text fill="black" x="892.374" y="135.195" id="e57_texte" style="font-family: Arial; font-size: 20px;" transform="matrix(0.372553 0 0 0.47779 157.665 138.735)">Next Point</text><text fill="black" x="908.441" y="225.441" id="e61_texte" style="font-family: Arial; font-size: 20px;" transform="matrix(0.372553 0 0 0.47779 157.665 138.735)">X+1 , Y</text><text fill="black" x="890.242" y="177.908" id="e62_texte" style="font-family: Arial; font-size: 20px;" transform="matrix(0.372553 0 0 0.47779 157.665 138.735)">X+1 , Y+1</text><text fill="black" x="1474.91" y="232.107" id="e69_texte" style="font-family: Arial; font-size: 20px;" transform="matrix(0.372553 0 0 0.47779 157.665 138.735)">+ a</text><text fill="black" x="218.282" y="123.622" id="e70_texte" style="font-family: Arial; font-size: 20px;" transform="matrix(0.644287 0 0 0.644287 151.472 36.0288)">where a = dy, b = -dx</text><text fill="black" x="243.19" y="145.08" id="e71_texte" style="font-family: Arial; font-size: 20px;" transform="matrix(0.644287 0 0 0.644287 151.472 36.0288)">from y = (dy/dx)*x + c</text><rect x="549.558" y="358.771" stroke="black" id="e2_rectangle" style="stroke-width: 1px;" width="292.727" height="83.6364" fill="paleturquoise" transform="matrix(0.835453 0 0 0.847673 -252.678 -80.5807)" ry="0" rx="0"/><line id="e11_line" x1="624.758" y1="356.204" x2="624.758" y2="425.901" stroke="black" style="stroke-width: 1px; fill: none;" transform="matrix(0.898077 0 0 1.02509 -281.122 -141.879)"/><text fill="black" x="1084.29" y="464.027" id="e72_texte" style="font-family: Arial; font-size: 20px;" transform="matrix(0.388806 0 0 0.577445 -138.044 -28.2185)">SIGNIFIES ideal LINE goes</text><text fill="black" x="1171.55" y="501.17" id="e78_texte" style="font-family: Arial; font-size: 20px;" transform="matrix(0.355604 0 0 0.512546 -103.7 2.26988)">above the midpoint</text><text fill="black" x="882.855" y="459.813" id="e79_texte" style="font-family: Arial; font-size: 20px;" transform="matrix(0.355604 0 0 0.512546 -103.7 2.26988)">Decision Parameter</text><text fill="black" x="914.068" y="550.059" id="e80_texte" style="font-family: Arial; font-size: 20px;" transform="matrix(0.355604 0 0 0.512546 -103.7 2.26988)">-ve</text><text fill="black" x="916.064" y="502.527" id="e81_texte" style="font-family: Arial; font-size: 20px;" transform="matrix(0.355604 0 0 0.512546 -103.7 2.26988)">+ve</text><text fill="black" x="1172.57" y="538.948" id="e82_texte" style="font-family: Arial; font-size: 20px;" transform="matrix(0.355604 0 0 0.512546 -103.7 2.26988)">below the midpoint</text><line id="e60_line" x1="484.675" y1="375.705" x2="788.991" y2="375.705" stroke="black" style="stroke-width: 1px; fill: none;" transform="matrix(0.807907 0 0 1.02509 -186.135 -139.601)"/><line id="e9_line" x1="486.666" y1="395.705" x2="788.992" y2="393.714" stroke="black" style="stroke-width: 1px; fill: none;" transform="matrix(0.807907 0 0 1.02509 -186.135 -139.601)"/><rect x="573.209" y="291.834" stroke="black" id="e3_rectangle" style="stroke-width: 1px;" width="292.727" height="83.6364" fill="paleturquoise" transform="matrix(0.615415 0 0 0.667381 -135.701 -37.8522)" ry="0" rx="0"/><text fill="black" x="1066.57" y="347.171" id="e40_texte" style="font-family: Arial; font-size: 20px;" transform="matrix(0.493197 0 0 0.43497 -245.764 15.8555)">F(x,y)&lt;0</text><text fill="black" x="933.063" y="347.402" id="e73_texte" style="font-family: Arial; font-size: 20px;" transform="matrix(0.390573 0 0 0.43497 -137.093 17.7885)">F(x,y) &gt; 0</text><line id="e76_line" x1="504.925" y1="321.722" x2="721.922" y2="321.721" stroke="black" style="stroke-width: 1px; fill: none;" transform="matrix(0.824167 0 0 0.869941 -199.497 -104.543)"/><line id="e12_line" x1="673.335" y1="299.999" x2="673.335" y2="363.029" stroke="black" style="stroke-width: 1px; fill: none;" transform="matrix(0.986391 0 0 0.869941 -331.963 -104.543)"/><line id="e10_line" x1="610.885" y1="302.221" x2="610.885" y2="363.029" stroke="black" style="stroke-width: 1px; fill: none;" transform="matrix(0.986391 0 0 0.869941 -331.963 -104.543)"/><text fill="black" x="1193.76" y="349.393" id="e56_texte" style="font-family: Arial; font-size: 20px;" transform="matrix(0.493197 0 0 0.43497 -245.764 15.8555)">F(x,y) = 0</text><text fill="black" x="917.137" y="398.514" id="e74_texte" style="font-family: Arial; font-size: 20px;" transform="matrix(0.390573 0 0 0.43497 -137.093 17.7885)">POINT above<tspan x="917.137" dy="1.25em" y="">the LiNE</tspan></text><text fill="black" x="1067.99" y="396.29" id="e76_texte" style="font-family: Arial; font-size: 20px;" transform="matrix(0.390573 0 0 0.43497 -137.093 17.7885)">POINT below<tspan x="1067.99" dy="1.25em" y="" id="e76_tspan">the LiNE</tspan></text><text fill="black" x="1220.44" y="396.29" id="e75_texte" style="font-family: Arial; font-size: 20px;" transform="matrix(0.390573 0 0 0.43497 -137.093 17.7885)">POINT ON<tspan x="1220.44" dy="1.25em" y="" id="e75_tspan">the LiNE</tspan></text><line id="e13_line" x1="738.615" y1="356.204" x2="738.615" y2="425.901" stroke="black" style="stroke-width: 1px; fill: none;" transform="matrix(0.898077 0 0 1.02509 -281.122 -141.879)"/><text fill="black" x="1373.66" y="458.053" id="e77_texte" style="font-family: Arial; font-size: 20px;" transform="matrix(0.356987 0 0 0.512546 -101.458 2.26988)">Select Next Point</text><text fill="black" x="1422.64" y="543.421" id="e83_texte" style="font-family: Arial; font-size: 20px;" transform="matrix(0.355604 0 0 0.512546 -103.7 2.26988)">X+1 , Y</text><text fill="black" x="1415.58" y="497.619" id="e84_texte" style="font-family: Arial; font-size: 20px;" transform="matrix(0.355604 0 0 0.512546 -103.7 2.26988)">X+1 , Y+1</text><text fill="black" x="15.8938" y="366.854" id="e85_texte" style="font-family: Arial; font-size: 20px;" transform="matrix(0.701637 0 0 0.701637 6.62099 108.988)">First Order Approach :</text><text fill="black" x="55.6277" y="393.29" id="e86_texte" style="font-family: Arial; font-size: 20px;"></text><text fill="black" x="16.2048" y="379.522" id="e87_texte" style="font-family: Arial; font-size: 20px;" transform="matrix(0.522443 0 0 0.522443 17.7993 189.747)">Next decision parameter is defined<tspan x="16.2048" dy="1.25em"> by only one previous decision</tspan><tspan x="16.2048" dy="1.25em"> parameter</tspan></text><text fill="black" x="13.1638" y="429.471" id="e88_texte" style="font-family: Arial; font-size: 20px;" transform="matrix(0.706447 0 0 0.706447 3.85694 126.333)">In Mid Point Approach :<tspan x="13.1638" dy="1.25em" y=""/></text><text fill="black" x="103.42" y="441.082" id="e89_texte" style="font-family: Arial; font-size: 20px;" transform="matrix(0.540068 0 0 0.540068 -25.882 202.276)">Decision Parameter = mid point</text><text fill="black" x="822.223" y="258.889" id="e90_texte" style="font-family: Arial; font-size: 20px; text-decoration: underline;" >ALGORITHM </text><text fill="black" x="588.889" y="358.889" id="e91_texte" style="font-family: Arial; font-size: 20px;"></text><text fill="black" x="936.771" y="219.109" id="e92_texte" style="font-family: Arial; font-size: 20px;" transform="matrix(0.607018 0 0 0.709926 206.002 152.938)">Initial point = (x1,y1)<tspan x="936.771" dy="1.25em" y="">final point = (x2,y2)</tspan></text><text fill="black" x="968.589" y="315.695" id="e93_texte" style="font-family: Arial; font-size: 20px;" transform="matrix(0.586005 0 0 0.741002 199.495 141.4)">if(abs(x2-x1) &gt;= abs(y2-y1)):<tspan x="1005.81" dy="1.25em" y="">a = x2-x1 # dx</tspan><tspan x="1009.6" dy="1.25em" y="">b = -(y2-y1) # -dy</tspan></text><text fill="black" x="1263.87" y="209.542" id="e94_texte" style="font-family: Arial; font-size: 20px;" transform="matrix(0.597895 0 0 0.597895 182.379 160.342)"><tspan x="1284.78" dy="1.25em" y=""/><tspan x="1286.95" dy="1.25em" y=""/><tspan x="1215.55" dy="1.25em" y="">x =x1 y = y1 </tspan><tspan x="1215.55" dy="1.25em" y="">p = 2a + b # decision parameter</tspan><tspan x="1263.87" dy="1.25em" y=""/><tspan x="1215.55" dy="1.25em" y="">while (x&lt;=x2) :</tspan><tspan x="1263.87" dy="1.25em" y=""/></text><text fill="black" x="1066.85" y="313.012" id="e95_texte" style="font-family: Arial; font-size: 20px;" transform="matrix(0.608128 0 0 0.608128 230.512 138.524)"><tspan x="1141.97" dy="1.25em" y="">if p &gt;= 0:</tspan><tspan x="1163.89" dy="1.25em" y="">y++</tspan><tspan x="1167.55" dy="1.25em" y="">p+=(a+b)</tspan><tspan x="1141.97" dy="1.25em" y="">else :</tspan><tspan x="1169.17" dy="1.25em" y="">p+=a</tspan><tspan x="1141.97" dy="1.25em" y="">plot(x,y)</tspan></text><text fill="black" x="901.484" y="272.825" id="e98_texte" style="font-family: Arial; font-size: 20px; text-decoration: underline;" transform="matrix(0.834605 0 0 0.834605 159.58 53.9391)"># Step 3</text><text fill="black" x="731.538" y="355.826" id="e96_texte" style="font-family: Arial; font-size: 20px; text-decoration: underline;" transform="matrix(0.834605 0 0 0.834605 159.58 53.9391)"># Step 2</text><text fill="black" x="731.999" y="273.746" id="e97_texte" style="font-family: Arial; font-size: 20px; text-decoration: underline;" transform="matrix(0.834605 0 0 0.834605 159.58 53.9391)"># Step 1</text><text fill="black" x="392.521" y="366.232" id="e99_texte" style="font-family: Arial; font-size: 20px;" transform="matrix(0.56739 0 0 0.622612 260.992 115.523)">Computing Initial Parameter :<tspan x="438.92" dy="1.25em" y="">F(x1 +1 ,y1 +(1/2)) - F(x1, y1) = a + (b/2)</tspan><tspan x="439.324" dy="1.25em" y="" id="e1_tspan">F(x1+1 ,y1 +(1/2)) - 0 = (2a+b)/2</tspan><tspan x="443.297" dy="1.25em" y="" id="e2_tspan">2*(F(x1 +1 ,y1 +(1/2))) = (2a+b)</tspan></text><text fill="black" x="465.254" y="442.98" id="e100_texte" style="font-family: Arial; font-size: 20px;" transform="matrix(0.578959 0 0 0.610611 217.726 136.713)">Multiply by 2 on LHS doesnot affect sign</text><text fill="black" x="499.514" y="455.622" id="e101_texte" style="font-family: Arial; font-size: 20px;" transform="matrix(0.621393 0 0 0.621393 187.168 142.111)">So, Initial Parameter will be :<tspan x="581.766" dy="1.25em" y="">p = 2a+b</tspan></text><text fill="black" x="506.666" y="294.444" id="e103_texte" style="font-family: Arial; font-size: 20px;" transform="matrix(0.605209 0 0 0.605209 192.839 111.037)">x1,y1 is initial point of the<tspan x="506.666" dy="1.25em">line so F(x1,y1) = 0 because</tspan><tspan x="506.666" dy="1.25em">point is on the line</tspan></text></svg>
